<svg xmlns="http://www.w3.org/2000/svg" width="1015.128" height="526" viewBox="0 0 1015.128 526"><defs><style>.a{fill:#f9f9f9;}.b{fill:#6c63ff;}.c{fill:#ac7959;}.d{fill:#0070bb;}.e{fill:#e4f4ff;}.f{fill:#fff;}.g{fill:#ffb8b8;}.h{fill:#2f2e41;}.i{fill:#d0cde1;}.j{fill:#1489a0;}.k{opacity:0.2;}</style></defs><g transform="translate(0 0)"><rect class="a" width="300.346" height="532.432" transform="translate(361.348 295.15) rotate(-74.21)"/><circle class="b" cx="4.243" cy="4.243" r="4.243" transform="translate(447.686 13.985)"/><circle class="b" cx="4.243" cy="4.243" r="4.243" transform="translate(460.752 17.68)"/><circle class="b" cx="4.243" cy="4.243" r="4.243" transform="translate(473.818 21.375)"/><path class="b" d="M807.42,376.53a49.571,49.571,0,0,0-20.7.489,49.483,49.483,0,0,0,1.464-20.92,49.194,49.194,0,0,0-18.506,11.943,49.193,49.193,0,0,0-9.511-19.866,49.483,49.483,0,0,0-9.709,18.588,49.572,49.572,0,0,0-17.382-11.259s-3.09,15.716,4.349,28.612c6.622,11.478,19.344,16.849,22.063,17.892l.064.076.034-.039c.276.1.431.158.431.158s.058-.3.139-.841l.152-.19c.011.086.021.164.031.241-.214.5-.322.789-.322.789s.16.035.45.091l.009.051.094-.032c2.863.535,16.514,2.622,28.166-3.688C801.822,391.536,807.42,376.53,807.42,376.53Z" transform="translate(-92.436 -187)"/><circle class="b" cx="11.032" cy="11.032" r="11.032" transform="translate(678.56 127.32)"/><rect class="b" width="344.549" height="7.496" transform="translate(496.573 187.834) rotate(15.79)"/><rect class="b" width="59.405" height="59.405" transform="translate(517.444 232.541) rotate(15.79)"/><rect class="b" width="59.405" height="59.405" transform="translate(623.605 262.561) rotate(15.79)"/><rect class="b" width="59.405" height="59.405" transform="translate(729.767 292.582) rotate(15.79)"/><rect class="b" width="44.13" height="5.092" transform="translate(505.396 303.216) rotate(15.79)"/><rect class="b" width="44.13" height="5.092" transform="translate(611.558 333.236) rotate(15.79)"/><rect class="b" width="44.13" height="5.092" transform="translate(717.718 363.257) rotate(15.79)"/><ellipse class="c" cx="284" cy="10.5" rx="284" ry="10.5" transform="translate(5.6 386)"/><ellipse class="d" cx="221" cy="10.5" rx="221" ry="10.5" transform="translate(573.128 505)"/><path class="e" d="M778.172,621H841.93v26.664H804.836v26.664h37.1v26.662H778.172Zm76.511,0h63.76v23.186h-37.1v4.637h37.1V702.15H854.685V677.8h37.1v-4.637h-37.1V621Zm76.513,0h63.76v23.186h-37.1v4.637h37.1V702.15H931.2V677.8h37.1v-4.637H931.2V621Z" transform="translate(-92.436 -187)"/><path class="f" d="M220.926,499h26.3v25.986h24.061V499h26.3v78.693h-26.3V551.342H247.23v26.351h-26.3V499ZM332.18,525.1H309.028V499h72.625v26.1H358.487v52.6h-26.3V525.1h0Zm61-26.1H420.6l16.87,27.651L454.329,499h27.437v78.693H455.571v-39l-18.1,27.98h-.454l-18.107-27.98v39H393.179Zm101.676,0h26.31v52.682h36.989v26.011h-63.3V499Z" transform="translate(-92.436 -187)"/><path class="g" d="M82.034,366.091l-2.158,24.467,17.27-1.44V368.25Z"/><path class="g" d="M66.2,366.091l2.159,24.467-17.27-1.44V368.25Z"/><path class="h" d="M203.974,365.276s5.757,34.541,5.757,39.578-2.159,37.419-5.757,43.9-4.318,9.355-2.878,12.233.72,2.159,0,4.318-2.159,1.439,0,4.318a7.561,7.561,0,0,1,0,8.635c-1.439,2.159,2.878,60.446-2.878,64.764s-7.2,18.71-7.2,18.71l-18.71-2.159V543.737s-4.318-11.514-1.439-18.71,4.318-45.335,4.318-45.335-.72-3.6,0-5.757,0-3.6-1.439-4.318-2.159-3.6-2.159-3.6l-2.159-52.531L160.8,465.3s8.635,70.521,0,79.876v16.551H142.089l2.878-17.99s-5.757-16.551-2.878-20.149-8.635-61.166-7.2-63.325.72-2.878,0-4.318-2.878-2.878-2.159-4.318,0-4.318,0-4.318-13.672-67.642-7.2-74.119S203.974,365.276,203.974,365.276Z" transform="translate(-92.436 -187)"/><path class="h" d="M176.629,568.2s1.439-6.9,12.953-4.53c0,0,2.878,5.969,2.878,8.848s2.878,22.308,2.878,22.308,11.514,19.429-2.878,19.429-19.429-5.037-20.149-10.074.72-6.476-2.159-8.635-4.318-2.159-3.6-5.037,2.159-17.27,2.159-17.27.72-10.794,4.677-7.916l3.958,2.878" transform="translate(-92.436 -187)"/><path class="h" d="M156.481,568.2s-1.439-6.9-12.953-4.53c0,0-2.878,5.969-2.878,8.848s-2.878,22.308-2.878,22.308-11.514,19.429,2.878,19.429,19.429-5.037,20.149-10.074-.72-6.476,2.159-8.635,4.318-2.159,3.6-5.037-2.159-17.27-2.159-17.27-.72-10.794-4.677-7.916l-3.958,2.878" transform="translate(-92.436 -187)"/><circle class="g" cx="19.429" cy="19.429" r="19.429" transform="translate(65.484 7.011)"/><path class="g" d="M161.518,216.319s-7.916,30.943-9.355,31.662,33.1,3.6,33.1,3.6-8.635-26.625,0-30.943Z" transform="translate(-92.436 -187)"/><path class="i" d="M156.463,235.175v0l-23.728,16.408,4.318,128.808s31.662-3.6,38.858-2.878,30.223-6.476,30.223-6.476L196.047,250a9.942,9.942,0,0,0-9.208-9.092l-4.322-.3s-4.317,10.689-17.307,5.175a15.156,15.156,0,0,1-8.747-10.6Z" transform="translate(-92.436 -187)"/><path class="j" d="M157.036,234,127.7,247.981l-5.757,82.754s-11.514,49.652-2.159,64.044,25.186,15.831,25.186,15.831,20.868-82.754,15.112-110.818S157.036,234,157.036,234Z" transform="translate(-92.436 -187)"/><path class="g" d="M101.791,358.8v10.794s-4.318,23.747,9.355,23.027,7.2-25.906,7.2-25.906l-4.318-7.916Z" transform="translate(-92.436 -187)"/><path class="g" d="M228.441,380.387,227,392.62s7.2,24.466-6.476,25.186-3.748-25.036-3.748-25.036l4.468-13.823Z" transform="translate(-92.436 -187)"/><path class="j" d="M182.084,238.085h0a84.747,84.747,0,0,1,35.438,18.422l.124.109-10.074,53.25L206.133,329.3s26.625,94.987-4.318,81.315c0,0-26.625-82.754-23.027-120.893S182.084,238.085,182.084,238.085Z" transform="translate(-92.436 -187)"/><path class="j" d="M208.292,255.9c.72-.72,9.355,1,9.355,1s15.831,55.848,15.831,65.2,2.159,62.605,2.159,62.605l-19,1.915-15.375-73.986Z" transform="translate(-92.436 -187)"/><path class="j" d="M132.734,247.981H127.7s-14.392,5.757-15.112,12.233-20.149,71.96-20.149,71.96l5.037,33.1,18.71-2.878,3.6-36.7,18.71-40.3Z" transform="translate(-92.436 -187)"/><path class="h" d="M173.574,218.863l.745-5.193c.174-1.21.882-2.8,2.06-2.473,1,.28,3.184,1.137,3.549.879,1.368-.969,3.439.726,4.877-.135.6-.361,1-1.134,1.7-1.185a1.933,1.933,0,0,1,1.246.564,8.477,8.477,0,0,0,3.224,1.751,3.468,3.468,0,0,0,3.394-.925,1.8,1.8,0,0,1,.6-.575,1.347,1.347,0,0,1,.863.04l3.676,1a14.125,14.125,0,0,0-1.89-11.63,23.391,23.391,0,0,0-5.354-5.244q-3.415-2.6-7.048-4.887a22.892,22.892,0,0,0-8.563-3.725c-3.1-.471-6.571.371-8.521,2.827a5.487,5.487,0,0,1-1.974-2.666,2.02,2.02,0,0,0,.13,3.1l-3.109-1.985c-.874.918.834,2.582.089,3.607a1.9,1.9,0,0,1-.837.546,14.252,14.252,0,0,0-4.559,2.869,17.01,17.01,0,0,0-3.59,6.614c-1.853,5.315-3.2,11.41-.567,16.385.3.564,4.237,9.874,4.762,10.237,1.774,1.227.619-1.743,1.89,0,1,1.367.81-3.864,2.292-2.716a3.693,3.693,0,0,0,4.02.181c.614-.426.416-2.791.085-4.963a2.559,2.559,0,0,1,3.113-2.879C171.72,218.712,173.543,219.083,173.574,218.863Z" transform="translate(-92.436 -187)"/><path class="k" d="M117.655,134.02,125.57,199.5h-5.037Z"/><path class="k" d="M34.181,108.834l-4,25.186,7.6-25.186h-3.6Z"/></g></svg>