<svg xmlns="http://www.w3.org/2000/svg" width="27.783" height="27.472" viewBox="0 0 27.783 27.472"><defs><style>.a{fill:#fff;}</style></defs><path class="a" d="M25.539,26.829l-7.81-7.663A11.082,11.082,0,0,1,3.581,18.1a10.51,10.51,0,0,1,0-15.088A11.067,11.067,0,0,1,19,3.013a10.5,10.5,0,0,1,.859,14.142l7.778,7.631a1.536,1.536,0,0,1,.145,2.191,1.388,1.388,0,0,1-.982.383A1.813,1.813,0,0,1,25.539,26.829ZM2.655,10.584a8.526,8.526,0,0,0,8.594,8.436,8.526,8.526,0,0,0,8.594-8.436,8.526,8.526,0,0,0-8.594-8.436A8.526,8.526,0,0,0,2.655,10.584Z" transform="translate(-0.389 0.112)"/></svg>